<?xml version="1.0" encoding="UTF-8" standalone="no"?>
<!DOCTYPE svg PUBLIC "-//W3C//DTD SVG 1.1//EN"
 "http://www.w3.org/Graphics/SVG/1.1/DTD/svg11.dtd">
<!-- Generated by graphviz version 2.47.3 (20210619.2315)
 -->
<!-- Title: snakemake_dag Pages: 1 -->
<svg width="708pt" height="215pt"
 viewBox="0.00 0.00 708.00 215.00" xmlns="http://www.w3.org/2000/svg" xmlns:xlink="http://www.w3.org/1999/xlink">
<g id="graph0" class="graph" transform="scale(1 1) rotate(0) translate(4 211)">
<title>snakemake_dag</title>
<polygon fill="white" stroke="transparent" points="-4,4 -4,-211 704,-211 704,4 -4,4"/>
<!-- 0 -->
<g id="node1" class="node">
<title>0</title>
<path fill="none" stroke="#56d8a9" stroke-width="2" d="M427.5,-36C427.5,-36 397.5,-36 397.5,-36 391.5,-36 385.5,-30 385.5,-24 385.5,-24 385.5,-12 385.5,-12 385.5,-6 391.5,0 397.5,0 397.5,0 427.5,0 427.5,0 433.5,0 439.5,-6 439.5,-12 439.5,-12 439.5,-24 439.5,-24 439.5,-30 433.5,-36 427.5,-36"/>
<text text-anchor="middle" x="412.5" y="-15.5" font-family="sans" font-size="10.00">all</text>
</g>
<!-- 1 -->
<g id="node2" class="node">
<title>1</title>
<path fill="none" stroke="#59d856" stroke-width="2" d="M189,-121.5C189,-121.5 12,-121.5 12,-121.5 6,-121.5 0,-115.5 0,-109.5 0,-109.5 0,-97.5 0,-97.5 0,-91.5 6,-85.5 12,-85.5 12,-85.5 189,-85.5 189,-85.5 195,-85.5 201,-91.5 201,-97.5 201,-97.5 201,-109.5 201,-109.5 201,-115.5 195,-121.5 189,-121.5"/>
<text text-anchor="middle" x="100.5" y="-106.5" font-family="sans" font-size="10.00">samtools_index</text>
<text text-anchor="middle" x="100.5" y="-95.5" font-family="sans" font-size="10.00">file: alignment/bwa_mem/NA12878_N</text>
</g>
<!-- 1&#45;&gt;0 -->
<g id="edge1" class="edge">
<title>1&#45;&gt;0</title>
<path fill="none" stroke="grey" stroke-width="2" d="M161.26,-85.49C177.27,-81.05 194.52,-76.31 210.5,-72 268.1,-56.46 335.11,-39 375.64,-28.51"/>
<polygon fill="grey" stroke="grey" stroke-width="2" points="376.54,-31.89 385.35,-26 374.79,-25.11 376.54,-31.89"/>
</g>
<!-- 2 -->
<g id="node3" class="node">
<title>2</title>
<path fill="none" stroke="#d85656" stroke-width="2" d="M417.5,-121.5C417.5,-121.5 231.5,-121.5 231.5,-121.5 225.5,-121.5 219.5,-115.5 219.5,-109.5 219.5,-109.5 219.5,-97.5 219.5,-97.5 219.5,-91.5 225.5,-85.5 231.5,-85.5 231.5,-85.5 417.5,-85.5 417.5,-85.5 423.5,-85.5 429.5,-91.5 429.5,-97.5 429.5,-97.5 429.5,-109.5 429.5,-109.5 429.5,-115.5 423.5,-121.5 417.5,-121.5"/>
<text text-anchor="middle" x="324.5" y="-106.5" font-family="sans" font-size="10.00">imagemagick_convert</text>
<text text-anchor="middle" x="324.5" y="-95.5" font-family="sans" font-size="10.00">file: cnv_sv/cnvkit_diagram/NA12878_N</text>
</g>
<!-- 2&#45;&gt;0 -->
<g id="edge2" class="edge">
<title>2&#45;&gt;0</title>
<path fill="none" stroke="grey" stroke-width="2" d="M342.73,-85.2C355.48,-73.11 372.67,-56.79 386.8,-43.38"/>
<polygon fill="grey" stroke="grey" stroke-width="2" points="389.44,-45.7 394.29,-36.28 384.63,-40.62 389.44,-45.7"/>
</g>
<!-- 3 -->
<g id="node4" class="node">
<title>3</title>
<path fill="none" stroke="#afd856" stroke-width="2" d="M543,-135C543,-135 460,-135 460,-135 454,-135 448,-129 448,-123 448,-123 448,-84 448,-84 448,-78 454,-72 460,-72 460,-72 543,-72 543,-72 549,-72 555,-78 555,-84 555,-84 555,-123 555,-123 555,-129 549,-135 543,-135"/>
<text text-anchor="middle" x="501.5" y="-123" font-family="sans" font-size="10.00">bedtools_intersect</text>
<text text-anchor="middle" x="501.5" y="-112" font-family="sans" font-size="10.00">bed: test</text>
<text text-anchor="middle" x="501.5" y="-101" font-family="sans" font-size="10.00">caller: vardict</text>
<text text-anchor="middle" x="501.5" y="-90" font-family="sans" font-size="10.00">file: NA12878_N</text>
<text text-anchor="middle" x="501.5" y="-79" font-family="sans" font-size="10.00">module: snv_indel</text>
</g>
<!-- 3&#45;&gt;0 -->
<g id="edge3" class="edge">
<title>3&#45;&gt;0</title>
<path fill="none" stroke="grey" stroke-width="2" d="M468.87,-71.88C458.69,-62.33 447.62,-51.95 438,-42.93"/>
<polygon fill="grey" stroke="grey" stroke-width="2" points="440.34,-40.32 430.65,-36.03 435.55,-45.42 440.34,-40.32"/>
</g>
<!-- 4 -->
<g id="node5" class="node">
<title>4</title>
<path fill="none" stroke="#d8ac56" stroke-width="2" d="M615.5,-121.5C615.5,-121.5 585.5,-121.5 585.5,-121.5 579.5,-121.5 573.5,-115.5 573.5,-109.5 573.5,-109.5 573.5,-97.5 573.5,-97.5 573.5,-91.5 579.5,-85.5 585.5,-85.5 585.5,-85.5 615.5,-85.5 615.5,-85.5 621.5,-85.5 627.5,-91.5 627.5,-97.5 627.5,-97.5 627.5,-109.5 627.5,-109.5 627.5,-115.5 621.5,-121.5 615.5,-121.5"/>
<text text-anchor="middle" x="600.5" y="-101" font-family="sans" font-size="10.00">tabix</text>
</g>
<!-- 4&#45;&gt;0 -->
<g id="edge4" class="edge">
<title>4&#45;&gt;0</title>
<path fill="none" stroke="grey" stroke-width="2" d="M582.79,-85.27C577.25,-80.51 570.9,-75.66 564.5,-72 527.72,-50.98 481.2,-36.27 449.37,-27.77"/>
<polygon fill="grey" stroke="grey" stroke-width="2" points="450.14,-24.35 439.58,-25.22 448.38,-31.13 450.14,-24.35"/>
</g>
<!-- 5 -->
<g id="node6" class="node">
<title>5</title>
<path fill="none" stroke="#56a9d8" stroke-width="2" d="M688,-207C688,-207 513,-207 513,-207 507,-207 501,-201 501,-195 501,-195 501,-183 501,-183 501,-177 507,-171 513,-171 513,-171 688,-171 688,-171 694,-171 700,-177 700,-183 700,-183 700,-195 700,-195 700,-201 694,-207 688,-207"/>
<text text-anchor="middle" x="600.5" y="-192" font-family="sans" font-size="10.00">bgzip</text>
<text text-anchor="middle" x="600.5" y="-181" font-family="sans" font-size="10.00">file: snv_indel/vardict/NA12878_N.vcf</text>
</g>
<!-- 5&#45;&gt;4 -->
<g id="edge5" class="edge">
<title>5&#45;&gt;4</title>
<path fill="none" stroke="grey" stroke-width="2" d="M600.5,-170.7C600.5,-159.5 600.5,-144.69 600.5,-131.91"/>
<polygon fill="grey" stroke="grey" stroke-width="2" points="604,-131.78 600.5,-121.78 597,-131.78 604,-131.78"/>
</g>
</g>
</svg>
